<svg width="43" height="44" viewBox="0 0 43 44" fill="none" xmlns="http://www.w3.org/2000/svg">
<path fill-rule="evenodd" clip-rule="evenodd" d="M12.6309 0.130581C14.9226 0.023742 15.6533 0 21.4911 0C27.3288 0 28.0595 0.0257205 30.3493 0.130581C32.6391 0.235442 34.2021 0.605422 35.5697 1.1416C37.0018 1.68964 38.301 2.54633 39.3756 3.6543C40.4696 4.7405 41.3137 6.05422 41.8529 7.50645C42.3843 8.8914 42.7477 10.4742 42.8532 12.7891C42.9587 15.1138 42.9821 15.8538 42.9821 21.7635C42.9821 27.6753 42.9567 28.4153 42.8532 30.7361C42.7497 33.0509 42.3843 34.6337 41.8529 36.0187C41.3136 37.4711 40.4682 38.787 39.3756 39.8748C38.301 40.9827 37.0018 41.8375 35.5697 42.3835C34.2021 42.9217 32.6391 43.2897 30.3532 43.3965C28.0595 43.5033 27.3288 43.5271 21.4911 43.5271C15.6533 43.5271 14.9226 43.5014 12.6309 43.3965C10.345 43.2917 8.78203 42.9217 7.41442 42.3835C5.98022 41.8374 4.6808 40.9813 3.60659 39.8748C2.51324 38.7879 1.66715 37.4726 1.1273 36.0206C0.597843 34.6357 0.234448 33.0529 0.128946 30.738C0.0234448 28.4133 0 27.6733 0 21.7635C0 15.8518 0.0253985 15.1118 0.128946 12.793C0.232494 10.4742 0.597843 8.8914 1.1273 7.50645C1.66795 6.05438 2.51469 4.73914 3.60855 3.65232C4.68123 2.54535 5.97935 1.68854 7.41247 1.1416C8.78008 0.605422 10.3431 0.23742 12.6289 0.130581H12.6309ZM30.1754 4.04802C27.9091 3.94316 27.2292 3.9214 21.4911 3.9214C15.753 3.9214 15.0731 3.94316 12.8067 4.04802C10.7104 4.14497 9.5733 4.49912 8.81525 4.79787C7.81298 5.19357 7.09596 5.66248 6.34377 6.4242C5.63075 7.12667 5.08201 7.98184 4.7378 8.92701C4.44279 9.69467 4.09307 10.8462 3.99734 12.9691C3.89379 15.2642 3.8723 15.9527 3.8723 21.7635C3.8723 27.5744 3.89379 28.2629 3.99734 30.558C4.09307 32.6809 4.44279 33.8324 4.7378 34.6001C5.08166 35.5438 5.63066 36.4005 6.34377 37.1029C7.03735 37.825 7.88332 38.381 8.81525 38.7292C9.5733 39.028 10.7104 39.3821 12.8067 39.4791C15.0731 39.5839 15.751 39.6057 21.4911 39.6057C27.2311 39.6057 27.9091 39.5839 30.1754 39.4791C32.2718 39.3821 33.4089 39.028 34.1669 38.7292C35.1692 38.3335 35.8862 37.8646 36.6384 37.1029C37.3515 36.4005 37.9005 35.5438 38.2443 34.6001C38.5394 33.8324 38.8891 32.6809 38.9848 30.558C39.0884 28.2629 39.1098 27.5744 39.1098 21.7635C39.1098 15.9527 39.0884 15.2642 38.9848 12.9691C38.8891 10.8462 38.5394 9.69467 38.2443 8.92701C37.8536 7.91204 37.3906 7.18593 36.6384 6.4242C35.9447 5.70219 35.1002 5.14651 34.1669 4.79787C33.4089 4.49912 32.2718 4.14497 30.1754 4.04802V4.04802ZM18.7461 28.4727C20.2791 29.1189 21.9861 29.2061 23.5756 28.7194C25.165 28.2327 26.5383 27.2023 27.4609 25.8041C28.3835 24.406 28.7981 22.7268 28.634 21.0535C28.4699 19.3801 27.7372 17.8164 26.561 16.6293C25.8112 15.8705 24.9047 15.2895 23.9065 14.9281C22.9084 14.5667 21.8436 14.4339 20.7887 14.5393C19.7338 14.6446 18.7151 14.9855 17.8059 15.5375C16.8968 16.0894 16.1198 16.8385 15.5308 17.7311C14.9419 18.6236 14.5557 19.6372 14.4 20.699C14.2444 21.7608 14.3231 22.8444 14.6306 23.8717C14.9381 24.899 15.4667 25.8444 16.1783 26.64C16.89 27.4356 17.7669 28.0615 18.7461 28.4727ZM13.68 13.8535C14.7058 12.8147 15.9236 11.9907 17.2638 11.4286C18.604 10.8664 20.0404 10.577 21.4911 10.577C22.9417 10.577 24.3782 10.8664 25.7184 11.4286C27.0586 11.9907 28.2763 12.8147 29.3021 13.8535C30.3279 14.8922 31.1415 16.1254 31.6967 17.4827C32.2518 18.8399 32.5375 20.2945 32.5375 21.7635C32.5375 23.2326 32.2518 24.6872 31.6967 26.0444C31.1415 27.4016 30.3279 28.6348 29.3021 29.6736C27.2305 31.7715 24.4208 32.9501 21.4911 32.9501C18.5614 32.9501 15.7517 31.7715 13.68 29.6736C11.6084 27.5757 10.4446 24.7304 10.4446 21.7635C10.4446 18.7967 11.6084 15.9514 13.68 13.8535V13.8535ZM34.9875 12.243C35.2417 12.0002 35.4452 11.7082 35.5859 11.3843C35.7267 11.0604 35.8018 10.7112 35.8069 10.3573C35.812 10.0035 35.7469 9.65223 35.6156 9.32431C35.4842 8.9964 35.2892 8.69851 35.0421 8.44829C34.795 8.19807 34.5008 8.00059 34.177 7.86756C33.8532 7.73452 33.5064 7.66863 33.157 7.67379C32.8076 7.67895 32.4627 7.75505 32.1429 7.89759C31.823 8.04012 31.5347 8.2462 31.2949 8.50361C30.8286 9.00423 30.5733 9.66919 30.5832 10.3573C30.5931 11.0455 30.8674 11.7026 31.348 12.1893C31.8285 12.6759 32.4774 12.9537 33.157 12.9638C33.8365 12.9738 34.4931 12.7152 34.9875 12.243V12.243Z" fill="black"/>
</svg>
