<svg width="43" height="32" viewBox="0 0 43 32" fill="none" xmlns="http://www.w3.org/2000/svg">
<path d="M39.912 0H3.07015C2.2559 0 1.47499 0.327565 0.899227 0.910634C0.323462 1.4937 0 2.28451 0 3.1091V27.9819C0 28.8065 0.323462 29.5973 0.899227 30.1804C1.47499 30.7634 2.2559 31.091 3.07015 31.091H39.912C40.7263 31.091 41.5072 30.7634 42.0829 30.1804C42.6587 29.5973 42.9821 28.8065 42.9821 27.9819V3.1091C42.9821 2.28451 42.6587 1.4937 42.0829 0.910634C41.5072 0.327565 40.7263 0 39.912 0ZM36.5348 3.1091L21.4911 13.6489L6.44732 3.1091H36.5348ZM3.07015 27.9819V4.52374L20.6161 16.8202C20.873 17.0008 21.1783 17.0975 21.4911 17.0975C21.8038 17.0975 22.1091 17.0008 22.3661 16.8202L39.912 4.52374V27.9819H3.07015Z" fill="black"/>
</svg>
