<svg width="43" height="44" viewBox="0 0 43 44" fill="none" xmlns="http://www.w3.org/2000/svg">
<path d="M9.81701 3.61346C9.65842 3.40688 9.45825 3.23683 9.22979 3.11461C9.00132 2.99239 8.74979 2.9208 8.4919 2.90459C8.23402 2.88838 7.97567 2.92793 7.73404 3.0206C7.4924 3.11327 7.273 3.25694 7.09041 3.44208L4.31278 6.25767C3.01529 7.57433 2.53713 9.43779 3.10394 11.0727C5.45644 17.8399 9.28322 23.9839 14.3004 29.049C19.3021 34.1298 25.3691 38.0051 32.0515 40.3875C33.666 40.9615 35.5061 40.4773 36.8063 39.1633L39.5839 36.3505C39.7667 36.1656 39.9086 35.9434 40.0001 35.6987C40.0916 35.454 40.1307 35.1924 40.1147 34.9312C40.0986 34.67 40.0279 34.4153 39.9073 34.184C39.7866 33.9526 39.6187 33.7499 39.4147 33.5893L33.2174 28.7089C32.9994 28.5378 32.7459 28.4189 32.476 28.3615C32.2061 28.304 31.9269 28.3093 31.6593 28.3771L25.7763 29.8651C24.9911 30.0639 24.1684 30.0533 23.3883 29.8345C22.6083 29.6157 21.8975 29.196 21.3251 28.6164L14.7276 21.9325C14.1548 21.3531 13.7399 20.6335 13.5233 19.8435C13.3068 19.0535 13.2959 18.2203 13.4919 17.4248L14.964 11.4672C15.0309 11.1962 15.0361 10.9134 14.9794 10.6401C14.9226 10.3668 14.8053 10.1101 14.6362 9.88937L9.81701 3.61346ZM5.06225 1.39091C5.53234 0.914712 6.09709 0.545232 6.719 0.307011C7.34091 0.0687904 8.00575 -0.0327214 8.66937 0.00921673C9.33299 0.0511548 9.98021 0.235583 10.568 0.550255C11.1559 0.864927 11.6709 1.30264 12.0789 1.83434L16.8981 8.10753C17.7819 9.25824 18.0935 10.7572 17.7443 12.1718L16.2749 18.1294C16.1989 18.438 16.203 18.7612 16.2868 19.0677C16.3706 19.3742 16.5312 19.6535 16.753 19.8786L23.3533 26.5626C23.5758 26.7877 23.8521 26.9506 24.1553 27.0355C24.4584 27.1203 24.7781 27.1242 25.0832 27.0468L30.9636 25.5587C31.6529 25.3842 32.3724 25.3706 33.0677 25.5191C33.763 25.6675 34.4158 25.9741 34.9769 26.4157L41.1715 31.296C43.3984 33.0507 43.6026 36.3831 41.6094 38.3989L38.8317 41.2118C36.8439 43.2249 33.8728 44.109 31.1032 43.1215C24.0146 40.5957 17.5785 36.4861 12.2723 31.0974C6.9515 25.7247 2.89336 19.2079 0.398837 12.0303C-0.573603 9.22832 0.299444 6.21686 2.28731 4.20378L5.06494 1.39091H5.06225Z" fill="black"/>
</svg>
