<svg width="30" height="31" viewBox="0 0 30 31" fill="none" xmlns="http://www.w3.org/2000/svg">
<path fill-rule="evenodd" clip-rule="evenodd" d="M21.8735 18.293C21.4992 18.1035 19.6642 17.1902 19.3225 17.063C18.9809 16.9371 18.7322 16.8748 18.4823 17.2538C18.2336 17.6303 17.5189 18.4825 17.3016 18.7344C17.0831 18.9875 16.8658 19.018 16.4927 18.8298C16.1197 18.639 14.9164 18.2408 13.4909 16.9537C12.3818 15.9514 11.632 14.7138 11.4147 14.3347C11.1974 13.957 11.3908 13.7522 11.578 13.5639C11.7463 13.3948 11.951 13.1226 12.1381 12.9025C12.3253 12.6812 12.3868 12.5235 12.5112 12.2704C12.6368 12.0186 12.574 11.7985 12.4798 11.609C12.3868 11.4195 11.6408 9.55863 11.3293 8.80183C11.0266 8.06538 10.7188 8.16586 10.4902 8.15314C10.2717 8.14297 10.023 8.14043 9.77431 8.14043C9.52562 8.14043 9.12118 8.23455 8.77955 8.61358C8.43666 8.99135 7.47329 9.90587 7.47329 11.7667C7.47329 13.6263 8.80969 15.4235 8.99684 15.6766C9.18398 15.9285 11.6282 19.7468 15.3724 21.3838C16.2641 21.773 16.9587 22.0058 17.5001 22.1788C18.3943 22.4675 19.2082 22.4268 19.8513 22.3288C20.5673 22.2207 22.0594 21.4143 22.3709 20.5316C22.6811 19.6489 22.6811 18.8921 22.5882 18.7344C22.4952 18.5766 22.2465 18.4825 21.8723 18.293H21.8735ZM15.0634 27.7091H15.0584C12.8345 27.7095 10.6515 27.1041 8.7381 25.9564L8.28593 25.6842L3.58592 26.9332L4.84068 22.2932L4.54552 21.8175C3.30224 19.8134 2.64428 17.4939 2.64768 15.1272C2.65019 8.19512 8.21936 2.55537 15.0684 2.55537C18.3843 2.55537 21.5017 3.86546 23.8455 6.24143C25.0015 7.40726 25.9177 8.79365 26.5412 10.3204C27.1647 11.8471 27.4831 13.4839 27.4779 15.1361C27.4753 22.0681 21.9062 27.7091 15.0634 27.7091V27.7091ZM25.629 4.43656C24.2451 3.02588 22.5985 1.90736 20.7847 1.14581C18.9708 0.384257 17.0257 -0.00518471 15.0621 5.21207e-05C6.83021 5.21207e-05 0.128114 6.78582 0.125602 15.1259C0.124346 17.7919 0.811386 20.3942 2.1189 22.6875L0 30.5265L7.91792 28.4227C10.1083 29.6312 12.5628 30.2644 15.0571 30.2644H15.0634C23.2953 30.2644 29.9974 23.4787 29.9999 15.1373C30.006 13.1496 29.6228 11.1805 28.8726 9.34372C28.1223 7.50696 27.0199 5.83908 25.629 4.43656" fill="#4ECB71"/>
</svg>
